<svg xmlns="http://www.w3.org/2000/svg" version="1.1" xmlns:xlink="http://www.w3.org/1999/xlink" xmlns:svgjs="http://svgjs.dev/svgjs" width="1000" height="1000" viewBox="0 0 1000 1000"><rect width="1000" height="1000" fill="#ffffff"></rect><g transform="matrix(0.7,0,0,0.7,149.57575768533957,378.4310457667652)"><svg viewBox="0 0 396 138" data-background-color="#ffffff" preserveAspectRatio="xMidYMid meet" height="348" width="1000" xmlns="http://www.w3.org/2000/svg" xmlns:xlink="http://www.w3.org/1999/xlink"><g id="tight-bounds" transform="matrix(1,0,0,1,0.2400000619921343,-0.13088799595072942)"><svg viewBox="0 0 395.52 138.26177599190143" height="138.26177599190143" width="395.52"><g><svg viewBox="0 0 395.52 138.26177599190143" height="138.26177599190143" width="395.52"><g transform="matrix(1,0,0,1,0,77.4225450962564)"><svg viewBox="0 0 395.52 60.83923089564504" height="60.83923089564504" width="395.52"><g id="textblocktransform"><svg viewBox="0 0 395.52 60.83923089564504" height="60.83923089564504" width="395.52" id="textblock"><g><svg viewBox="0 0 395.52 60.83923089564504" height="60.83923089564504" width="395.52"><g transform="matrix(1,0,0,1,0,0)"><svg width="395.52" viewBox="4.150000095367432 -37.099998474121094 304.2300109863281 46.79999923706055" height="60.83923089564504" data-palette-color="#a3cfa7"><path d="M22.7-35.6Q28.95-35.6 32.45-31.68 35.95-27.75 35.95-20.5L35.95-20.5 35.95 0 27.85 0 27.85-20.25Q27.85-24.45 25.88-26.58 23.9-28.7 20.4-28.7L20.4-28.7Q16.7-28.7 14.48-26.43 12.25-24.15 12.25-19.7L12.25-19.7 12.25 0 4.15 0 4.15-35 12-35 12-30.75Q13.8-33.15 16.5-34.38 19.2-35.6 22.7-35.6L22.7-35.6ZM56.2 0.4Q51.95 0.4 48.57-1.38 45.2-3.15 43.3-6.3 41.4-9.45 41.4-13.45L41.4-13.45Q41.4-17.45 43.3-20.6 45.2-23.75 48.57-25.53 51.95-27.3 56.2-27.3L56.2-27.3Q60.45-27.3 63.8-25.53 67.15-23.75 69.05-20.6 70.95-17.45 70.95-13.45L70.95-13.45Q70.95-9.45 69.05-6.3 67.15-3.15 63.8-1.38 60.45 0.4 56.2 0.4L56.2 0.4ZM56.2-6Q59.2-6 61.12-8.03 63.05-10.05 63.05-13.45L63.05-13.45Q63.05-16.85 61.12-18.88 59.2-20.9 56.2-20.9L56.2-20.9Q53.2-20.9 51.25-18.88 49.3-16.85 49.3-13.45L49.3-13.45Q49.3-10.05 51.25-8.03 53.2-6 56.2-6L56.2-6ZM90.3-6.8L92.35-1.3Q91.2-0.45 89.52-0.03 87.85 0.4 86.05 0.4L86.05 0.4Q81.2 0.4 78.6-2.05 76-4.5 76-9.25L76-9.25 76-32.85 83.8-32.85 83.8-26.3 90.45-26.3 90.45-20.3 83.8-20.3 83.8-9.35Q83.8-7.65 84.65-6.73 85.5-5.8 87.1-5.8L87.1-5.8Q88.9-5.8 90.3-6.8L90.3-6.8ZM109.44-5.85Q111.54-5.85 113.17-6.48 114.79-7.1 116.19-8.45L116.19-8.45 120.34-3.95Q116.54 0.4 109.24 0.4L109.24 0.4Q104.69 0.4 101.19-1.38 97.69-3.15 95.79-6.3 93.89-9.45 93.89-13.45L93.89-13.45Q93.89-17.4 95.77-20.58 97.64-23.75 100.92-25.53 104.19-27.3 108.29-27.3L108.29-27.3Q112.14-27.3 115.29-25.68 118.44-24.05 120.32-20.98 122.19-17.9 122.19-13.7L122.19-13.7 102.29-9.85Q103.14-7.85 104.97-6.85 106.79-5.85 109.44-5.85L109.44-5.85ZM108.29-21.4Q105.34-21.4 103.49-19.5 101.64-17.6 101.54-14.25L101.54-14.25 114.64-16.8Q114.09-18.9 112.39-20.15 110.69-21.4 108.29-21.4L108.29-21.4ZM139.49 0.6Q135.34 0.6 131.47-0.53 127.59-1.65 125.24-3.45L125.24-3.45 127.99-9.55Q130.24-7.9 133.34-6.9 136.44-5.9 139.54-5.9L139.54-5.9Q142.99-5.9 144.64-6.93 146.29-7.95 146.29-9.65L146.29-9.65Q146.29-10.9 145.32-11.73 144.34-12.55 142.82-13.05 141.29-13.55 138.69-14.15L138.69-14.15Q134.69-15.1 132.14-16.05 129.59-17 127.77-19.1 125.94-21.2 125.94-24.7L125.94-24.7Q125.94-27.75 127.59-30.23 129.24-32.7 132.57-34.15 135.89-35.6 140.69-35.6L140.69-35.6Q144.04-35.6 147.24-34.8 150.44-34 152.84-32.5L152.84-32.5 150.34-26.35Q145.49-29.1 140.64-29.1L140.64-29.1Q137.24-29.1 135.62-28 133.99-26.9 133.99-25.1L133.99-25.1Q133.99-23.3 135.87-22.43 137.74-21.55 141.59-20.7L141.59-20.7Q145.59-19.75 148.14-18.8 150.69-17.85 152.52-15.8 154.34-13.75 154.34-10.25L154.34-10.25Q154.34-7.25 152.67-4.78 150.99-2.3 147.64-0.85 144.29 0.6 139.49 0.6L139.49 0.6ZM175.24-27.3Q178.99-27.3 182.06-25.58 185.14-23.85 186.89-20.73 188.64-17.6 188.64-13.45L188.64-13.45Q188.64-9.3 186.89-6.18 185.14-3.05 182.06-1.33 178.99 0.4 175.24 0.4L175.24 0.4Q170.09 0.4 167.14-2.85L167.14-2.85 167.14 9.7 159.34 9.7 159.34-26.9 166.79-26.9 166.79-23.8Q169.69-27.3 175.24-27.3L175.24-27.3ZM173.89-6Q176.89-6 178.81-8.03 180.74-10.05 180.74-13.45L180.74-13.45Q180.74-16.85 178.81-18.88 176.89-20.9 173.89-20.9L173.89-20.9Q170.89-20.9 168.96-18.88 167.04-16.85 167.04-13.45L167.04-13.45Q167.04-10.05 168.96-8.03 170.89-6 173.89-6L173.89-6ZM201.29-23.35Q202.69-25.3 205.06-26.3 207.44-27.3 210.54-27.3L210.54-27.3 210.54-20.1Q209.24-20.2 208.79-20.2L208.79-20.2Q205.44-20.2 203.54-18.32 201.64-16.45 201.64-12.7L201.64-12.7 201.64 0 193.84 0 193.84-26.9 201.29-26.9 201.29-23.35ZM228.48-5.85Q230.58-5.85 232.21-6.48 233.83-7.1 235.23-8.45L235.23-8.45 239.38-3.95Q235.58 0.4 228.28 0.4L228.28 0.4Q223.73 0.4 220.23-1.38 216.73-3.15 214.83-6.3 212.93-9.45 212.93-13.45L212.93-13.45Q212.93-17.4 214.81-20.58 216.68-23.75 219.96-25.53 223.23-27.3 227.33-27.3L227.33-27.3Q231.18-27.3 234.33-25.68 237.48-24.05 239.36-20.98 241.23-17.9 241.23-13.7L241.23-13.7 221.33-9.85Q222.18-7.85 224.01-6.85 225.83-5.85 228.48-5.85L228.48-5.85ZM227.33-21.4Q224.38-21.4 222.53-19.5 220.68-17.6 220.58-14.25L220.58-14.25 233.68-16.8Q233.13-18.9 231.43-20.15 229.73-21.4 227.33-21.4L227.33-21.4ZM265.98-26.9L273.78-26.9 273.78 0 266.33 0 266.33-3.1Q263.43 0.4 257.93 0.4L257.93 0.4Q254.13 0.4 251.06-1.3 247.98-3 246.23-6.15 244.48-9.3 244.48-13.45L244.48-13.45Q244.48-17.6 246.23-20.75 247.98-23.9 251.06-25.6 254.13-27.3 257.93-27.3L257.93-27.3Q263.08-27.3 265.98-24.05L265.98-24.05 265.98-26.9ZM259.28-6Q262.23-6 264.18-8.03 266.13-10.05 266.13-13.45L266.13-13.45Q266.13-16.85 264.18-18.88 262.23-20.9 259.28-20.9L259.28-20.9Q256.28-20.9 254.33-18.88 252.38-16.85 252.38-13.45L252.38-13.45Q252.38-10.05 254.33-8.03 256.28-6 259.28-6L259.28-6ZM300.58-37.1L308.38-37.1 308.38 0 300.93 0 300.93-3.1Q298.03 0.4 292.53 0.4L292.53 0.4Q288.73 0.4 285.65-1.3 282.58-3 280.83-6.15 279.08-9.3 279.08-13.45L279.08-13.45Q279.08-17.6 280.83-20.75 282.58-23.9 285.65-25.6 288.73-27.3 292.53-27.3L292.53-27.3Q297.68-27.3 300.58-24.05L300.58-24.05 300.58-37.1ZM293.88-6Q296.83-6 298.78-8.03 300.73-10.05 300.73-13.45L300.73-13.45Q300.73-16.85 298.78-18.88 296.83-20.9 293.88-20.9L293.88-20.9Q290.88-20.9 288.93-18.88 286.98-16.85 286.98-13.45L286.98-13.45Q286.98-10.05 288.93-8.03 290.88-6 293.88-6L293.88-6Z" opacity="1" transform="matrix(1,0,0,1,0,0)" fill="#a3cfa7" class="undefined-text-0" data-fill-palette-color="primary" id="text-0"></path></svg></g></svg></g></svg></g></svg></g><g transform="matrix(1,0,0,1,170.38702884061587,0)"><svg viewBox="0 0 54.74594231876822 63.059862823336104" height="63.059862823336104" width="54.74594231876822"><g><svg xmlns="http://www.w3.org/2000/svg" xmlns:xlink="http://www.w3.org/1999/xlink" version="1.1" x="0" y="0" viewBox="11.566998481750488 6.624998092651367 72.05799865722656 83.00099182128906" enable-background="new 0 0 100 100" xml:space="preserve" height="63.059862823336104" width="54.74594231876822" class="icon-icon-0" data-fill-palette-color="accent" id="icon-0"><g fill="#4a596d" data-fill-palette-color="accent"><path d="M49.105 24.244l0.169 0.071c0.749 0.202 1.537 0.31 2.351 0.31 4.971 0 9-4.029 9-9s-4.029-9-9-9-9.001 4.029-9.001 9c0 2.4 0.938 4.581 2.47 6.194l0.004-0.002L23.314 53.036l-0.028-0.007c-0.846-0.263-1.759-0.404-2.69-0.404-4.971 0-9.029 4.029-9.029 9s3.971 9 8.941 9c3.189 0 5.942-1.659 7.506-4.161l37.611 13.558 0.021 0.002c-0.014 0.199-0.021 0.399-0.021 0.602 0 4.971 4.029 9 9 9s9-4.029 9-9-4.029-9-9-9c-3.025 0-5.701 1.492-7.333 3.781l0.003 0.003L29.39 61.625c0-2.23-0.39-4.271-2.39-5.844v0.006l22.045-31.477" fill="#4a596d" data-fill-palette-color="accent"></path></g></svg></g></svg></g><g></g></svg></g><defs></defs></svg><rect width="395.52" height="138.26177599190143" fill="none" stroke="none" visibility="hidden"></rect></g></svg></g></svg>