<svg xmlns="http://www.w3.org/2000/svg" version="1.1" xmlns:xlink="http://www.w3.org/1999/xlink" xmlns:svgjs="http://svgjs.dev/svgjs" width="1000" height="1000" viewBox="0 0 1000 1000"><rect width="1000" height="1000" fill="#eeeef1"></rect><g transform="matrix(0.7,0,0,0.7,149.57576656694675,406.7766482119554)"><svg viewBox="0 0 396 106" data-background-color="#eeeef1" preserveAspectRatio="xMidYMid meet" height="267" width="1000" xmlns="http://www.w3.org/2000/svg" xmlns:xlink="http://www.w3.org/1999/xlink"><g id="tight-bounds" transform="matrix(1,0,0,1,0.23999491355584723,-0.1285410617460343)"><svg viewBox="0 0 395.52 106.25708418891172" height="106.25708418891172" width="395.52"><g><svg viewBox="0 0 395.52 106.25708418891172" height="106.25708418891172" width="395.52"><g><svg viewBox="0 0 395.52 106.25708418891172" height="106.25708418891172" width="395.52"><g id="textblocktransform"><svg viewBox="0 0 395.52 106.25708418891172" height="106.25708418891172" width="395.52" id="textblock"><g><svg viewBox="0 0 395.52 106.25708418891172" height="106.25708418891172" width="395.52"><g transform="matrix(1,0,0,1,0,0)"><svg width="395.52" viewBox="3.0999999046325684 -39.04999923706055 146.08999633789062 39.25" height="106.25708418891172" data-palette-color="#000000"><path d="M16.9 0.2L16.9 0.2Q13 0.2 9.88-1.63 6.75-3.45 4.93-6.6 3.1-9.75 3.1-13.7L3.1-13.7Q3.1-17.65 4.78-20.78 6.45-23.9 9.35-25.73 12.25-27.55 15.9-27.55L15.9-27.55Q18.85-27.55 21.35-26.33 23.85-25.1 25.55-23L25.55-23 25.55-36.5Q25.55-37.65 26.28-38.35 27-39.05 28.1-39.05L28.1-39.05Q29.25-39.05 29.95-38.35 30.65-37.65 30.65-36.5L30.65-36.5 30.65-13.7Q30.65-9.75 28.83-6.6 27-3.45 23.9-1.63 20.8 0.2 16.9 0.2ZM16.9-4.3L16.9-4.3Q19.45-4.3 21.45-5.53 23.45-6.75 24.6-8.9 25.75-11.05 25.75-13.7L25.75-13.7Q25.75-16.4 24.6-18.5 23.45-20.6 21.45-21.83 19.45-23.05 16.9-23.05L16.9-23.05Q14.4-23.05 12.38-21.83 10.35-20.6 9.18-18.5 8-16.4 8-13.7L8-13.7Q8-11.05 9.18-8.9 10.35-6.75 12.38-5.53 14.4-4.3 16.9-4.3ZM51.05 0.2L51.05 0.2Q47.4 0.2 44.5-1.63 41.6-3.45 39.92-6.58 38.25-9.7 38.25-13.65L38.25-13.65Q38.25-17.6 40.07-20.75 41.9-23.9 45.02-25.73 48.15-27.55 52.05-27.55L52.05-27.55Q55.95-27.55 59.05-25.73 62.15-23.9 63.97-20.75 65.8-17.6 65.8-13.65L65.8-13.65 63.85-13.65Q63.85-9.7 62.17-6.58 60.5-3.45 57.6-1.63 54.7 0.2 51.05 0.2ZM52.05-4.3L52.05-4.3Q54.6-4.3 56.6-5.53 58.6-6.75 59.75-8.88 60.9-11 60.9-13.65L60.9-13.65Q60.9-16.35 59.75-18.48 58.6-20.6 56.6-21.83 54.6-23.05 52.05-23.05L52.05-23.05Q49.55-23.05 47.52-21.83 45.5-20.6 44.32-18.48 43.15-16.35 43.15-13.65L43.15-13.65Q43.15-11 44.32-8.88 45.5-6.75 47.52-5.53 49.55-4.3 52.05-4.3ZM63.25 0.05L63.25 0.05Q62.15 0.05 61.42-0.68 60.7-1.4 60.7-2.5L60.7-2.5 60.7-10.15 61.65-15.45 65.8-13.65 65.8-2.5Q65.8-1.4 65.07-0.68 64.35 0.05 63.25 0.05ZM76.35 0L76.35 0Q75.4 0 74.65-0.7 73.9-1.4 73.9-2.55L73.9-2.55 73.9-27.2Q73.9-30.8 75.32-33.45 76.75-36.1 79.3-37.58 81.85-39.05 85.2-39.05L85.2-39.05Q86.3-39.05 87.02-38.4 87.75-37.75 87.75-36.75L87.75-36.75Q87.75-35.8 87.02-35.13 86.3-34.45 85.2-34.45L85.2-34.45Q83.35-34.45 81.95-33.6 80.55-32.75 79.77-31.25 79-29.75 79-27.7L79-27.7 79-2.55Q79-1.4 78.3-0.7 77.6 0 76.35 0ZM84.1-22.05L71.75-22.05Q70.7-22.05 70.05-22.65 69.4-23.25 69.4-24.15L69.4-24.15Q69.4-25.15 70.05-25.75 70.7-26.35 71.75-26.35L71.75-26.35 84.1-26.35Q85.15-26.35 85.8-25.75 86.45-25.15 86.45-24.15L86.45-24.15Q86.45-23.25 85.8-22.65 85.15-22.05 84.1-22.05L84.1-22.05ZM102.59 0L101.69 0Q99.19 0 97.19-1.28 95.19-2.55 94.04-4.75 92.89-6.95 92.89-9.7L92.89-9.7 92.89-33.55Q92.89-34.65 93.59-35.35 94.29-36.05 95.39-36.05L95.39-36.05Q96.49-36.05 97.19-35.35 97.89-34.65 97.89-33.55L97.89-33.55 97.89-9.7Q97.89-7.7 98.99-6.35 100.09-5 101.69-5L101.69-5 103.39-5Q104.29-5 104.92-4.3 105.54-3.6 105.54-2.5L105.54-2.5Q105.54-1.4 104.72-0.7 103.89 0 102.59 0L102.59 0ZM102.14-22.05L90.59-22.05Q89.54-22.05 88.89-22.65 88.24-23.25 88.24-24.15L88.24-24.15Q88.24-25.15 88.89-25.75 89.54-26.35 90.59-26.35L90.59-26.35 102.14-26.35Q103.19-26.35 103.84-25.75 104.49-25.15 104.49-24.15L104.49-24.15Q104.49-23.25 103.84-22.65 103.19-22.05 102.14-22.05L102.14-22.05ZM124.64 0.2L124.64 0.2Q120.49 0.2 117.27-1.58 114.04-3.35 112.22-6.48 110.39-9.6 110.39-13.65L110.39-13.65Q110.39-17.75 112.12-20.88 113.84-24 116.89-25.78 119.94-27.55 123.89-27.55L123.89-27.55Q127.79-27.55 130.59-25.83 133.39-24.1 134.87-21.08 136.34-18.05 136.34-14.1L136.34-14.1Q136.34-13.15 135.69-12.53 135.04-11.9 134.04-11.9L134.04-11.9 113.89-11.9 113.89-15.9 133.89-15.9 131.84-14.5Q131.79-17 130.84-18.98 129.89-20.95 128.14-22.1 126.39-23.25 123.89-23.25L123.89-23.25Q121.04-23.25 119.02-22 116.99-20.75 115.94-18.57 114.89-16.4 114.89-13.65L114.89-13.65Q114.89-10.9 116.14-8.75 117.39-6.6 119.59-5.35 121.79-4.1 124.64-4.1L124.64-4.1Q126.19-4.1 127.82-4.67 129.44-5.25 130.44-6L130.44-6Q131.19-6.55 132.06-6.58 132.94-6.6 133.59-6.05L133.59-6.05Q134.44-5.3 134.49-4.4 134.54-3.5 133.69-2.85L133.69-2.85Q131.99-1.5 129.47-0.65 126.94 0.2 124.64 0.2ZM145.89 0L145.89 0Q144.79 0 144.06-0.73 143.34-1.45 143.34-2.55L143.34-2.55 143.34-24.8Q143.34-25.95 144.06-26.65 144.79-27.35 145.89-27.35L145.89-27.35Q147.04-27.35 147.74-26.65 148.44-25.95 148.44-24.8L148.44-24.8 148.44-2.55Q148.44-1.45 147.74-0.73 147.04 0 145.89 0ZM145.89-31.8L145.89-31.8Q144.54-31.8 143.56-32.77 142.59-33.75 142.59-35.1L142.59-35.1Q142.59-36.45 143.56-37.43 144.54-38.4 145.89-38.4L145.89-38.4Q147.24-38.4 148.21-37.43 149.19-36.45 149.19-35.1L149.19-35.1Q149.19-33.75 148.21-32.77 147.24-31.8 145.89-31.8Z" opacity="1" transform="matrix(1,0,0,1,0,0)" fill="#000000" class="undefined-text-0" data-fill-palette-color="primary" id="text-0"></path></svg></g></svg></g></svg></g></svg></g><g></g></svg></g><defs></defs></svg><rect width="395.52" height="106.25708418891172" fill="none" stroke="none" visibility="hidden"></rect></g></svg></g></svg>